<svg width="400" height="500" viewBox="0 0 400 500" fill="none" xmlns="http://www.w3.org/2000/svg">
<g clip-path="url(#clip0_701_1016)">
<path d="M108 404.207C105.75 404.207 103.957 406.035 103.957 408.25C103.957 410.5 105.75 412.293 108 412.293C110.215 412.293 112.043 410.5 112.043 408.25C112.043 406.035 110.215 404.207 108 404.207ZM108 410.887C106.559 410.887 105.363 409.727 105.363 408.25C105.363 406.809 106.523 405.648 108 405.648C109.441 405.648 110.602 406.809 110.602 408.25C110.602 409.727 109.441 410.887 108 410.887ZM113.133 404.066C113.133 403.539 112.711 403.117 112.184 403.117C111.656 403.117 111.234 403.539 111.234 404.066C111.234 404.594 111.656 405.016 112.184 405.016C112.711 405.016 113.133 404.594 113.133 404.066ZM115.805 405.016C115.734 403.75 115.453 402.625 114.539 401.711C113.625 400.797 112.5 400.516 111.234 400.445C109.934 400.375 106.031 400.375 104.73 400.445C103.465 400.516 102.375 400.797 101.426 401.711C100.512 402.625 100.23 403.75 100.16 405.016C100.09 406.316 100.09 410.219 100.16 411.52C100.23 412.785 100.512 413.875 101.426 414.824C102.375 415.738 103.465 416.02 104.73 416.09C106.031 416.16 109.934 416.16 111.234 416.09C112.5 416.02 113.625 415.738 114.539 414.824C115.453 413.875 115.734 412.785 115.805 411.52C115.875 410.219 115.875 406.316 115.805 405.016ZM114.117 412.891C113.871 413.594 113.309 414.121 112.641 414.402C111.586 414.824 109.125 414.719 108 414.719C106.84 414.719 104.379 414.824 103.359 414.402C102.656 414.121 102.129 413.594 101.848 412.891C101.426 411.871 101.531 409.41 101.531 408.25C101.531 407.125 101.426 404.664 101.848 403.609C102.129 402.941 102.656 402.414 103.359 402.133C104.379 401.711 106.84 401.816 108 401.816C109.125 401.816 111.586 401.711 112.641 402.133C113.309 402.379 113.836 402.941 114.117 403.609C114.539 404.664 114.434 407.125 114.434 408.25C114.434 409.41 114.539 411.871 114.117 412.891Z" fill="white"/>
<path d="M15.25 400.75H2.75C1.34375 400.75 0.25 401.883 0.25 403.25V415.75C0.25 417.156 1.34375 418.25 2.75 418.25H15.25C16.6172 418.25 17.75 417.156 17.75 415.75V403.25C17.75 401.883 16.6172 400.75 15.25 400.75ZM6.10938 414.148C5.875 414.383 5.5625 414.5 5.25 414.5C4.89844 414.5 4.58594 414.383 4.35156 414.148C3.84375 413.68 3.84375 412.859 4.35156 412.391C4.58594 412.156 4.89844 412 5.25 412C5.5625 412 5.875 412.156 6.10938 412.391C6.61719 412.859 6.61719 413.68 6.10938 414.148ZM9.97656 414.5C9.97656 414.5 9.9375 414.5 9.89844 414.5C9.39062 414.5 9 414.148 8.96094 413.641C8.84375 411.492 7.00781 409.656 4.85938 409.5C4.35156 409.5 3.96094 409.031 4 408.523C4 408.016 4.46875 407.625 4.97656 407.664C8.02344 407.859 10.6406 410.477 10.8359 413.523C10.875 414.031 10.4844 414.5 9.97656 414.5ZM13.7266 414.5C13.6875 414.5 13.6875 414.5 13.6484 414.5C13.1406 414.5 12.7109 414.109 12.7109 413.602C12.5547 409.461 9.03906 405.945 4.89844 405.75C4.35156 405.75 3.96094 405.32 4 404.773C4 404.266 4.42969 403.875 4.97656 403.875C10.0547 404.109 14.3906 408.445 14.5859 413.523C14.625 414.07 14.2344 414.5 13.7266 414.5Z" fill="#F26522"/>
<g clip-path="url(#clip1_701_1016)">
<path d="M13.3167 313.973H6.77025C6.18867 313.973 5.75621 313.929 5.51762 313.824C5.10007 313.66 4.87639 313.332 4.87639 312.855C4.87639 312.423 5.05534 311.96 5.42814 311.483L10.0957 305.086H6.99393C5.48779 305.086 5.07025 304.534 5.07025 303.445C5.07025 302.357 5.92025 301.82 7.4413 301.82H13.0483C13.7492 301.82 14.2413 301.85 14.4948 301.924C14.6887 301.969 14.8378 302.044 14.9571 302.148V301.865C14.9571 301.164 14.2115 300.433 13.5255 300.433H1.4913C0.790425 300.433 0.0597229 301.179 0.0597229 301.865V313.914C0.0597229 314.615 0.805337 315.345 1.4913 315.345H3.84744L3.83253 317.448L6.75534 315.345H13.5255C14.2264 315.345 14.9571 314.6 14.9571 313.914V313.601C14.5843 313.854 14.0325 313.973 13.3167 313.973Z" fill="#11A7E0"/>
<path d="M10.0361 310.812H13.3466C14.0475 310.812 14.5843 310.901 14.9572 311.11V303.937C14.8528 304.116 14.7186 304.295 14.5694 304.504L10.0361 310.812Z" fill="#11A7E0"/>
</g>
<path d="M114 306.497H113.5V303.935C113.5 303.653 113.375 303.403 113.188 303.216L110.781 300.81C110.594 300.622 110.344 300.497 110.062 300.497H104.438C103.906 300.497 103.5 300.966 103.5 301.497V306.497H103C101.594 306.497 100.5 307.622 100.5 308.997V311.997C100.5 312.278 100.719 312.497 101 312.497H103.5V315.997C103.5 316.278 103.719 316.497 104 316.497H113C113.25 316.497 113.5 316.278 113.5 315.997V312.497H116C116.25 312.497 116.5 312.278 116.5 311.997V308.997C116.5 307.622 115.375 306.497 114 306.497ZM110.5 301.935L112.062 303.497H110.5V301.935ZM104.5 301.497H109.5V303.497C109.5 304.06 109.938 304.497 110.5 304.497H112.5V306.497H104.5V301.497ZM112.5 315.497H104.5V312.497H112.5V315.497ZM115.5 311.497H101.5V308.997C101.5 308.185 102.156 307.497 103 307.497H114C114.812 307.497 115.5 308.185 115.5 308.997V311.497ZM113 308.747C112.562 308.747 112.25 309.091 112.25 309.497C112.25 309.935 112.562 310.247 113 310.247C113.406 310.247 113.75 309.935 113.75 309.497C113.75 309.091 113.406 308.747 113 308.747Z" fill="#666666"/>
<rect x="201" y="301.448" width="14.6667" height="11" rx="2.8" stroke="#666666" stroke-width="1.2"/>
<path d="M204.667 305.115L207.733 307.415C208.089 307.681 208.578 307.681 208.933 307.415L212 305.115" stroke="#666666" stroke-width="1.2" stroke-linecap="round"/>
<path d="M309.571 303.571C309.571 304.992 308.42 306.143 307 306.143C305.58 306.143 304.429 304.992 304.429 303.571C304.429 302.151 305.58 301 307 301C308.42 301 309.571 302.151 309.571 303.571Z" stroke="#666666" stroke-width="1.5"/>
<path d="M301 314.714V311.765C301 310.842 301.528 309.998 302.393 309.674C303.559 309.238 305.526 308.714 307 308.714C308.505 308.714 310.176 309.26 311.493 309.702C312.414 310.011 313 310.888 313 311.86V314.714" stroke="#666666" stroke-width="1.5" stroke-linecap="round"/>
<path d="M300.75 207L304.002 204.832C304.596 204.436 304.596 203.564 304.002 203.168L300.75 201" stroke="#999999" stroke-width="1.2" stroke-linecap="round" stroke-dasharray="0.2 0.2"/>
<path d="M211 207.75L206.832 201.498C206.436 200.904 205.564 200.904 205.168 201.498L201 207.75" stroke="white" stroke-width="1.5" stroke-linecap="round" stroke-dasharray="0.2 0.2"/>
<rect x="103" y="205.378" width="16" height="14" rx="2.8" stroke="#FCB500" stroke-width="1.5"/>
<path d="M106.813 210.711L105.454 214.676C105.231 215.325 105.714 216 106.4 216H115.068C115.879 216 116.353 215.085 115.885 214.423L114.106 211.907C113.741 211.391 112.995 211.339 112.562 211.798L111.786 212.621C111.37 213.062 110.661 213.035 110.28 212.564L108.537 210.407C108.043 209.795 107.068 209.967 106.813 210.711Z" stroke="#FCB500" stroke-width="1.5" stroke-linecap="round"/>
<circle cx="115" cy="209" r="1" fill="#FCB500"/>
<path d="M102.586 213.027L101.195 206.127C100.891 204.617 101.862 203.145 103.37 202.832C104.786 202.538 106.498 202.183 107.846 201.903C109.301 201.601 111.184 201.245 112.663 200.972C114.043 200.718 115.397 201.532 115.769 202.885C115.941 203.511 116.109 204.168 116.225 204.729" stroke="#FCB500" stroke-width="1.5" stroke-linecap="round"/>
<rect x="103.732" y="230.904" width="20.8567" height="18.2496" rx="2.8" stroke="#FCB500" stroke-width="1.5"/>
<path d="M108.703 237.856L106.931 243.024C106.641 243.87 107.27 244.75 108.164 244.75H119.463C120.521 244.75 121.138 243.557 120.528 242.694L118.209 239.415C117.733 238.742 116.761 238.674 116.196 239.273L115.185 240.346C114.643 240.92 113.719 240.885 113.222 240.271L110.95 237.459C110.306 236.662 109.035 236.886 108.703 237.856Z" stroke="#FCB500" stroke-width="1.5" stroke-linecap="round"/>
<circle cx="119.374" cy="235.625" r="1.30354" fill="#FCB500"/>
<path d="M103.192 240.874L101.213 231.052C100.908 229.542 101.879 228.07 103.387 227.757C105.357 227.348 108.019 226.795 110.05 226.374C112.195 225.928 115.056 225.393 117.061 225.026C118.441 224.774 119.791 225.589 120.176 226.938C120.464 227.946 120.775 229.108 120.972 230.058" stroke="#FCB500" stroke-width="1.5" stroke-linecap="round"/>
<rect x="1" y="201" width="15" height="12" rx="2.8" stroke="#FCB500" stroke-width="1.5"/>
<path d="M5 204H7" stroke="#FCB500" stroke-width="1.5" stroke-linecap="round"/>
<path d="M18.0601 203.589L16.5831 205.307C15.8056 206.212 15.8056 207.788 16.5831 208.693L18.0601 210.411C19.1937 211.73 21 210.69 21 208.718V205.282C21 203.31 19.1937 202.27 18.0601 203.589Z" stroke="#FCB500" stroke-width="1.5" stroke-linecap="round"/>
<path d="M9.49451 204H9.50349" stroke="#FCB500" stroke-width="2" stroke-linecap="round" stroke-linejoin="round"/>
<rect x="1" y="219" width="18" height="14" rx="2.8" stroke="#FCB500" stroke-width="1.5"/>
<path d="M5.80078 222.5H8.20078" stroke="#FCB500" stroke-width="1.5" stroke-linecap="round"/>
<path d="M21.4721 222.021L19.6997 224.025C18.7668 225.081 18.7668 226.919 19.6997 227.975L21.4721 229.979C22.8324 231.518 25 230.305 25 228.005V223.995C25 221.695 22.8324 220.482 21.4721 222.021Z" stroke="#FCB500" stroke-width="1.5" stroke-linecap="round"/>
<path d="M11.1934 222.5H11.2023" stroke="#FCB500" stroke-width="2" stroke-linecap="round" stroke-linejoin="round"/>
<path d="M307.5 104.464V108.214L309.938 109.339" stroke="#666666" stroke-linecap="round" stroke-linejoin="round"/>
<path d="M305.508 101.522C306.745 100.826 308.255 100.826 309.492 101.522L311.929 102.893C313.208 103.612 314 104.966 314 106.434V108.994C314 110.462 313.208 111.815 311.929 112.535L309.492 113.906C308.255 114.602 306.745 114.602 305.508 113.906L303.071 112.535C301.792 111.815 301 110.462 301 108.994V106.434C301 104.966 301.792 103.612 303.071 102.893L305.508 101.522Z" stroke="#666666"/>
<path d="M217.156 101.906C216.969 101.156 216.375 100.562 215.656 100.375C214.312 100 209 100 209 100C209 100 203.656 100 202.312 100.375C201.594 100.562 201 101.156 200.812 101.906C200.438 103.219 200.438 106.031 200.438 106.031C200.438 106.031 200.438 108.812 200.812 110.156C201 110.906 201.594 111.469 202.312 111.656C203.656 112 209 112 209 112C209 112 214.312 112 215.656 111.656C216.375 111.469 216.969 110.906 217.156 110.156C217.531 108.812 217.531 106.031 217.531 106.031C217.531 106.031 217.531 103.219 217.156 101.906ZM207.25 108.562V103.5L211.688 106.031L207.25 108.562Z" fill="white"/>
<path d="M114.344 103.75C114.969 103.281 115.531 102.719 115.969 102.062C115.406 102.312 114.75 102.5 114.094 102.562C114.781 102.156 115.281 101.531 115.531 100.75C114.906 101.125 114.188 101.406 113.469 101.562C112.844 100.906 112 100.531 111.062 100.531C109.25 100.531 107.781 102 107.781 103.812C107.781 104.062 107.812 104.312 107.875 104.562C105.156 104.406 102.719 103.094 101.094 101.125C100.812 101.594 100.656 102.156 100.656 102.781C100.656 103.906 101.219 104.906 102.125 105.5C101.594 105.469 101.062 105.344 100.625 105.094V105.125C100.625 106.719 101.75 108.031 103.25 108.344C103 108.406 102.688 108.469 102.406 108.469C102.188 108.469 102 108.438 101.781 108.406C102.188 109.719 103.406 110.656 104.844 110.688C103.719 111.562 102.312 112.094 100.781 112.094C100.5 112.094 100.25 112.062 100 112.031C101.438 112.969 103.156 113.5 105.031 113.5C111.062 113.5 114.344 108.531 114.344 104.188C114.344 104.031 114.344 103.906 114.344 103.75Z" fill="white"/>
<path d="M114.344 121.75C114.969 121.281 115.531 120.719 115.969 120.062C115.406 120.312 114.75 120.5 114.094 120.562C114.781 120.156 115.281 119.531 115.531 118.75C114.906 119.125 114.188 119.406 113.469 119.562C112.844 118.906 112 118.531 111.062 118.531C109.25 118.531 107.781 120 107.781 121.812C107.781 122.062 107.812 122.312 107.875 122.562C105.156 122.406 102.719 121.094 101.094 119.125C100.812 119.594 100.656 120.156 100.656 120.781C100.656 121.906 101.219 122.906 102.125 123.5C101.594 123.469 101.062 123.344 100.625 123.094V123.125C100.625 124.719 101.75 126.031 103.25 126.344C103 126.406 102.688 126.469 102.406 126.469C102.188 126.469 102 126.438 101.781 126.406C102.188 127.719 103.406 128.656 104.844 128.688C103.719 129.562 102.312 130.094 100.781 130.094C100.5 130.094 100.25 130.062 100 130.031C101.438 130.969 103.156 131.5 105.031 131.5C111.062 131.5 114.344 126.531 114.344 122.188C114.344 122.031 114.344 121.906 114.344 121.75Z" fill="#4099FF"/>
<path d="M8.71875 109L9.15625 106.125H6.375V104.25C6.375 103.438 6.75 102.688 8 102.688H9.28125V100.219C9.28125 100.219 8.125 100 7.03125 100C4.75 100 3.25 101.406 3.25 103.906V106.125H0.6875V109H3.25V116H6.375V109H8.71875Z" fill="white"/>
<path d="M8.71875 127L9.15625 124.125H6.375V122.25C6.375 121.438 6.75 120.688 8 120.688H9.28125V118.219C9.28125 118.219 8.125 118 7.03125 118C4.75 118 3.25 119.406 3.25 121.906V124.125H0.6875V127H3.25V134H6.375V127H8.71875Z" fill="#3B5998"/>
<rect x="301" y="2.0715" width="16" height="16" rx="2.8" stroke="#999999" stroke-width="1.5"/>
<path d="M305.571 3.21433V0.928619" stroke="#999999" stroke-width="1.5" stroke-linecap="round"/>
<path d="M312.429 3.21433V0.928619" stroke="#999999" stroke-width="1.5" stroke-linecap="round"/>
<path d="M316.429 15.2143H307.286C303.814 15.2143 301 12.4001 301 8.92862V8.92862" stroke="#999999" stroke-width="1.5" stroke-linecap="round"/>
<path d="M305 7.00003H305.5" stroke="#999999" stroke-width="1.5" stroke-linecap="round"/>
<path d="M309 7.00003H309.5" stroke="#999999" stroke-width="1.5" stroke-linecap="round"/>
<path d="M313 7.00003H313.5" stroke="#999999" stroke-width="1.5" stroke-linecap="round"/>
<path d="M305 11H305.5" stroke="#999999" stroke-width="1.5" stroke-linecap="round"/>
<path d="M309 11H309.5" stroke="#999999" stroke-width="1.5" stroke-linecap="round"/>
<path d="M313 11H313.5" stroke="#999999" stroke-width="1.5" stroke-linecap="round"/>
<path d="M201 1H210" stroke="white" stroke-width="1.5" stroke-linecap="round"/>
<path d="M201 13H207" stroke="white" stroke-width="1.5" stroke-linecap="round"/>
<path d="M201 7H215" stroke="white" stroke-width="1.5" stroke-linecap="round"/>
<path d="M201 25H210" stroke="#FCB500" stroke-width="1.5" stroke-linecap="round"/>
<path d="M201 37H207" stroke="#FCB500" stroke-width="1.5" stroke-linecap="round"/>
<path d="M201 31H215" stroke="#FCB500" stroke-width="1.5" stroke-linecap="round"/>
<path fill-rule="evenodd" clip-rule="evenodd" d="M107.593 1.75C104.348 1.75 101.717 4.39898 101.717 7.66667C101.717 10.9344 104.348 13.5833 107.593 13.5833C110.838 13.5833 113.468 10.9344 113.468 7.66667C113.468 4.39898 110.838 1.75 107.593 1.75ZM100.227 7.66667C100.227 3.57055 103.525 0.25 107.593 0.25C111.66 0.25 114.958 3.57055 114.958 7.66667C114.958 11.7628 111.66 15.0833 107.593 15.0833C103.525 15.0833 100.227 11.7628 100.227 7.66667Z" fill="white"/>
<path fill-rule="evenodd" clip-rule="evenodd" d="M111.921 12.0252C112.212 11.7323 112.683 11.7323 112.974 12.0252L117.388 16.4697C117.679 16.7625 117.679 17.2374 117.388 17.5303C117.097 17.8232 116.625 17.8232 116.334 17.5303L111.921 13.0859C111.63 12.793 111.63 12.3181 111.921 12.0252Z" fill="white"/>
<path fill-rule="evenodd" clip-rule="evenodd" d="M113.374 10.918C113.785 10.9426 114.098 11.2978 114.074 11.7112C114.034 12.3767 113.902 13.0217 113.429 13.4941C112.969 13.9527 112.324 14.1079 111.654 14.1891C111.245 14.2385 110.874 13.9453 110.825 13.534C110.776 13.1227 111.067 12.7493 111.476 12.6998C112.097 12.6246 112.298 12.5101 112.38 12.4285C112.448 12.3607 112.553 12.1951 112.587 11.6221C112.611 11.2086 112.964 10.8934 113.374 10.918Z" fill="white"/>
<path d="M6.80944 1.94391L1.8154 7.25007C1.29164 7.80657 1 8.54196 1 9.30617V15.2981C1 16.8823 2.23176 18.1934 3.81287 18.2922L9 18.6164L14.1855 18.2923C15.7672 18.1935 16.9993 16.8813 16.9983 15.2964L16.9947 9.31144C16.9943 8.54785 16.7027 7.81318 16.1793 7.25713L11.1786 1.9439C9.99413 0.685364 7.99395 0.685367 6.80944 1.94391Z" stroke="white" stroke-width="1.5" stroke-linecap="round"/>
<path d="M6 15.1164V12.518C6 12.1704 6.18051 11.8477 6.47674 11.6658L8.47674 10.4377C8.79774 10.2406 9.20226 10.2406 9.52326 10.4377L11.5233 11.6658C11.8195 11.8477 12 12.1704 12 12.518V15.1164" stroke="white" stroke-width="1.5" stroke-linecap="round"/>
</g>
<defs>
<clipPath id="clip0_701_1016">
<rect width="400" height="500" fill="white"/>
</clipPath>
<clipPath id="clip1_701_1016">
<rect width="14.9719" height="17" fill="white" transform="translate(0 300.448)"/>
</clipPath>
</defs>
</svg>
