<svg width="300" height="300" viewBox="0 0 300 300" fill="none" xmlns="http://www.w3.org/2000/svg">
<g clip-path="url(#clip0_425_870)">
<path d="M211 207.75L206.832 201.498C206.436 200.904 205.564 200.904 205.168 201.498L201 207.75" stroke="white" stroke-width="1.5" stroke-linecap="round" stroke-dasharray="0.2 0.2"/>
<rect x="103" y="205.378" width="16" height="14" rx="2.8" stroke="#FCB500" stroke-width="1.5"/>
<path d="M106.814 210.711L105.454 214.676C105.232 215.325 105.714 216 106.4 216H115.068C115.88 216 116.353 215.085 115.885 214.423L114.106 211.907C113.741 211.391 112.995 211.339 112.562 211.798L111.786 212.621C111.37 213.062 110.661 213.035 110.28 212.564L108.537 210.407C108.043 209.795 107.069 209.967 106.814 210.711Z" stroke="#FCB500" stroke-width="1.5" stroke-linecap="round"/>
<circle cx="115" cy="209" r="1" fill="#FCB500"/>
<path d="M102.586 213.027L101.195 206.127C100.891 204.617 101.862 203.145 103.37 202.832C104.786 202.538 106.498 202.183 107.847 201.903C109.301 201.601 111.184 201.245 112.664 200.972C114.044 200.718 115.397 201.532 115.769 202.885C115.941 203.511 116.109 204.168 116.225 204.729" stroke="#FCB500" stroke-width="1.5" stroke-linecap="round"/>
<rect x="103.731" y="230.904" width="20.8567" height="18.2496" rx="2.8" stroke="#FCB500" stroke-width="1.5"/>
<path d="M108.703 237.856L106.931 243.024C106.641 243.87 107.27 244.75 108.164 244.75H119.463C120.521 244.75 121.138 243.557 120.527 242.694L118.209 239.415C117.733 238.742 116.761 238.674 116.196 239.273L115.184 240.346C114.643 240.92 113.718 240.885 113.222 240.271L110.95 237.459C110.305 236.662 109.035 236.886 108.703 237.856Z" stroke="#FCB500" stroke-width="1.5" stroke-linecap="round"/>
<circle cx="119.375" cy="235.625" r="1.30354" fill="#FCB500"/>
<path d="M103.192 240.874L101.213 231.052C100.908 229.542 101.879 228.07 103.387 227.757C105.357 227.348 108.019 226.795 110.05 226.374C112.195 225.928 115.056 225.393 117.061 225.026C118.441 224.774 119.791 225.589 120.176 226.938C120.464 227.946 120.775 229.108 120.972 230.058" stroke="#FCB500" stroke-width="1.5" stroke-linecap="round"/>
<rect x="1" y="201" width="15" height="12" rx="2.8" stroke="#FCB500" stroke-width="1.5"/>
<path d="M5 204H7" stroke="#FCB500" stroke-width="1.5" stroke-linecap="round"/>
<path d="M18.0601 203.589L16.5831 205.307C15.8056 206.212 15.8056 207.788 16.5831 208.693L18.0601 210.411C19.1937 211.73 21 210.69 21 208.718V205.282C21 203.31 19.1937 202.27 18.0601 203.589Z" stroke="#FCB500" stroke-width="1.5" stroke-linecap="round"/>
<path d="M9.49414 204H9.50312" stroke="#FCB500" stroke-width="2" stroke-linecap="round" stroke-linejoin="round"/>
<rect x="1" y="219" width="18" height="14" rx="2.8" stroke="#FCB500" stroke-width="1.5"/>
<path d="M5.80078 222.5H8.20078" stroke="#FCB500" stroke-width="1.5" stroke-linecap="round"/>
<path d="M21.4721 222.021L19.6997 224.025C18.7668 225.081 18.7668 226.919 19.6997 227.975L21.4721 229.979C22.8324 231.518 25 230.305 25 228.005V223.995C25 221.695 22.8324 220.482 21.4721 222.021Z" stroke="#FCB500" stroke-width="1.5" stroke-linecap="round"/>
<path d="M11.1934 222.5H11.2023" stroke="#FCB500" stroke-width="2" stroke-linecap="round" stroke-linejoin="round"/>
<path d="M217.156 101.906C216.969 101.156 216.375 100.562 215.656 100.375C214.312 100 209 100 209 100C209 100 203.656 100 202.312 100.375C201.594 100.562 201 101.156 200.812 101.906C200.438 103.219 200.438 106.031 200.438 106.031C200.438 106.031 200.438 108.812 200.812 110.156C201 110.906 201.594 111.469 202.312 111.656C203.656 112 209 112 209 112C209 112 214.312 112 215.656 111.656C216.375 111.469 216.969 110.906 217.156 110.156C217.531 108.812 217.531 106.031 217.531 106.031C217.531 106.031 217.531 103.219 217.156 101.906ZM207.25 108.562V103.5L211.688 106.031L207.25 108.562Z" fill="white"/>
<path d="M114.344 103.75C114.969 103.281 115.531 102.719 115.969 102.062C115.406 102.312 114.75 102.5 114.094 102.562C114.781 102.156 115.281 101.531 115.531 100.75C114.906 101.125 114.188 101.406 113.469 101.562C112.844 100.906 112 100.531 111.062 100.531C109.25 100.531 107.781 102 107.781 103.812C107.781 104.062 107.812 104.312 107.875 104.562C105.156 104.406 102.719 103.094 101.094 101.125C100.812 101.594 100.656 102.156 100.656 102.781C100.656 103.906 101.219 104.906 102.125 105.5C101.594 105.469 101.062 105.344 100.625 105.094V105.125C100.625 106.719 101.75 108.031 103.25 108.344C103 108.406 102.688 108.469 102.406 108.469C102.188 108.469 102 108.438 101.781 108.406C102.188 109.719 103.406 110.656 104.844 110.688C103.719 111.562 102.312 112.094 100.781 112.094C100.5 112.094 100.25 112.062 100 112.031C101.438 112.969 103.156 113.5 105.031 113.5C111.062 113.5 114.344 108.531 114.344 104.188C114.344 104.031 114.344 103.906 114.344 103.75Z" fill="white"/>
<path d="M8.71875 109L9.15625 106.125H6.375V104.25C6.375 103.438 6.75 102.688 8 102.688H9.28125V100.219C9.28125 100.219 8.125 100 7.03125 100C4.75 100 3.25 101.406 3.25 103.906V106.125H0.6875V109H3.25V116H6.375V109H8.71875Z" fill="white"/>
<path fill-rule="evenodd" clip-rule="evenodd" d="M107.593 1.75C104.348 1.75 101.717 4.39898 101.717 7.66667C101.717 10.9344 104.348 13.5833 107.593 13.5833C110.838 13.5833 113.468 10.9344 113.468 7.66667C113.468 4.39898 110.838 1.75 107.593 1.75ZM100.228 7.66667C100.228 3.57055 103.525 0.25 107.593 0.25C111.66 0.25 114.958 3.57055 114.958 7.66667C114.958 11.7628 111.66 15.0833 107.593 15.0833C103.525 15.0833 100.228 11.7628 100.228 7.66667Z" fill="white"/>
<path fill-rule="evenodd" clip-rule="evenodd" d="M111.921 12.0252C112.212 11.7323 112.684 11.7323 112.975 12.0252L117.388 16.4697C117.679 16.7625 117.679 17.2374 117.388 17.5303C117.097 17.8232 116.626 17.8232 116.335 17.5303L111.921 13.0859C111.63 12.793 111.63 12.3181 111.921 12.0252Z" fill="white"/>
<path fill-rule="evenodd" clip-rule="evenodd" d="M113.375 10.918C113.785 10.9426 114.099 11.2978 114.074 11.7112C114.035 12.3767 113.903 13.0217 113.429 13.4941C112.969 13.9527 112.324 14.1079 111.654 14.1891C111.246 14.2385 110.875 13.9453 110.826 13.534C110.777 13.1227 111.068 12.7493 111.476 12.6998C112.097 12.6246 112.299 12.5101 112.381 12.4285C112.449 12.3607 112.553 12.1951 112.587 11.6221C112.612 11.2086 112.964 10.8934 113.375 10.918Z" fill="white"/>
<path d="M6.80944 1.94391L1.8154 7.25007C1.29164 7.80657 1 8.54196 1 9.30617V15.2981C1 16.8823 2.23176 18.1934 3.81287 18.2922L9 18.6164L14.1855 18.2923C15.7672 18.1935 16.9993 16.8813 16.9983 15.2964L16.9947 9.31144C16.9943 8.54785 16.7027 7.81318 16.1793 7.25713L11.1786 1.9439C9.99413 0.685364 7.99395 0.685367 6.80944 1.94391Z" stroke="white" stroke-width="1.5" stroke-linecap="round"/>
<path d="M6 15.1164V12.518C6 12.1704 6.18051 11.8477 6.47674 11.6658L8.47674 10.4377C8.79774 10.2406 9.20226 10.2406 9.52326 10.4377L11.5233 11.6658C11.8195 11.8477 12 12.1704 12 12.518V15.1164" stroke="white" stroke-width="1.5" stroke-linecap="round"/>
<path d="M201 1H210" stroke="white" stroke-width="1.5" stroke-linecap="round"/>
<path d="M201 13H207" stroke="white" stroke-width="1.5" stroke-linecap="round"/>
<path d="M201 7H215" stroke="white" stroke-width="1.5" stroke-linecap="round"/>
<path d="M201 25H210" stroke="#FCB500" stroke-width="1.5" stroke-linecap="round"/>
<path d="M201 37H207" stroke="#FCB500" stroke-width="1.5" stroke-linecap="round"/>
<path d="M201 31H215" stroke="#FCB500" stroke-width="1.5" stroke-linecap="round"/>
</g>
<defs>
<clipPath id="clip0_425_870">
<rect width="300" height="300" fill="white"/>
</clipPath>
</defs>
</svg>
